<svg xmlns="http://www.w3.org/2000/svg" width="32" height="32" viewBox="0 0 32 32">
  <defs>
    <linearGradient id="mainGrad" x1="0%" y1="0%" x2="100%" y2="100%">
      <stop offset="0%" style="stop-color:#10b981;stop-opacity:1" />
      <stop offset="50%" style="stop-color:#3b82f6;stop-opacity:1" />
      <stop offset="100%" style="stop-color:#8b5cf6;stop-opacity:1" />
    </linearGradient>
    <linearGradient id="targetGrad" x1="0%" y1="0%" x2="100%" y2="100%">
      <stop offset="0%" style="stop-color:#f97316;stop-opacity:1" />
      <stop offset="100%" style="stop-color:#ec4899;stop-opacity:1" />
    </linearGradient>
  </defs>
  
  <!-- Main background with gradient -->
  <rect x="2" y="2" width="28" height="28" rx="14" fill="url(#mainGrad)" />
  
  <!-- White backdrop for icons -->
  <rect x="4" y="4" width="24" height="24" rx="12" fill="white" fill-opacity="0.1" />
  
  <!-- Heart icon (main logo) -->
  <path d="M16 26c-0.5 0-1-0.2-1.4-0.6-3.1-3.1-8.6-8.6-8.6-13.4 0-3.3 2.7-6 6-6 1.8 0 3.4 0.8 4 2 0.6-1.2 2.2-2 4-2 3.3 0 6 2.7 6 6 0 4.8-5.5 10.3-8.6 13.4-0.4 0.4-0.9 0.6-1.4 0.6z" fill="white"/>
  
  <!-- Target icon (small accent) -->
  <circle cx="24" cy="8" r="4" fill="url(#targetGrad)"/>
  <circle cx="24" cy="8" r="2" fill="white"/>
</svg>